<svg xmlns="http://www.w3.org/2000/svg" version="1.1" xmlns:xlink="http://www.w3.org/1999/xlink" xmlns:svgjs="http://svgjs.dev/svgjs" width="1000" height="381" viewBox="0 0 1000 381"><g transform="matrix(1,0,0,1,-0.6060606060606233,0.12727803755382183)"><svg viewBox="0 0 396 151" data-background-color="#008080" preserveAspectRatio="xMidYMid meet" height="381" width="1000" xmlns="http://www.w3.org/2000/svg" xmlns:xlink="http://www.w3.org/1999/xlink"><g id="tight-bounds" transform="matrix(1,0,0,1,0.2400000000000091,-0.050443526694564866)"><svg viewBox="0 0 395.52 151.10088705338913" height="151.10088705338913" width="395.52"><g><svg viewBox="0 0 395.52 151.10088705338913" height="151.10088705338913" width="395.52"><g transform="matrix(1,0,0,1,0,93.38641006594143)"><svg viewBox="0 0 395.52 57.714476987447696" height="57.714476987447696" width="395.52"><g><svg viewBox="0 0 395.52 57.714476987447696" height="57.714476987447696" width="395.52"><g><svg viewBox="0 0 395.52 57.714476987447696" height="57.714476987447696" width="395.52"><g transform="matrix(1,0,0,1,0,0)"><svg width="395.52" viewBox="-0.05 -47 477.95 69.75" height="57.714476987447696" data-palette-color="#ffffff"><path d="M11.6 0.25Q9.75 0.25 8.95-0.58 8.15-1.4 8.15-3.7L8.15-3.7Q8.15-5.25 8.47-7.68 8.8-10.1 9.55-14.35L9.55-14.35Q10.85-22.2 11.6-27.95L11.6-27.95Q12.05-31.55 12.05-33.95L12.05-33.95Q12.05-36.2 10.4-36.2L10.4-36.2Q9.1-36.2 7.28-34.88 5.45-33.55 3.25-30.65L3.25-30.65Q2.55-29.7 1.7-29.7L1.7-29.7Q1-29.7 0.48-30.38-0.05-31.05-0.05-31.9L-0.05-31.9Q-0.05-32.7 0.28-33.52 0.6-34.35 1.35-35.4L1.35-35.4Q3.75-38.75 6.7-40.58 9.65-42.4 12.6-42.4L12.6-42.4Q15.35-42.4 16.82-40.65 18.3-38.9 18.3-35.55L18.3-35.55Q18.3-34.2 18.05-32.38 17.8-30.55 17.6-29.4 17.4-28.25 17.3-27.8L17.3-27.8Q20.15-35.95 23.7-39.18 27.25-42.4 31.5-42.4L31.5-42.4Q34.75-42.4 36.63-40.1 38.5-37.8 38.5-33.6L38.5-33.6Q38.5-31.95 38.05-29.5L38.05-29.5Q40.55-36.4 43.9-39.4 47.25-42.4 51.6-42.4L51.6-42.4Q55.1-42.4 56.98-40.15 58.85-37.9 58.85-33.85L58.85-33.85Q58.85-31.65 58.2-28.5L58.2-28.5 55.15-14.2Q54.65-11.7 54.65-9.9L54.65-9.9Q54.65-7.8 55.63-6.75 56.6-5.7 58.35-5.7L58.35-5.7Q60-5.7 61.58-6.8 63.15-7.9 65.3-10.45L65.3-10.45Q65.9-11.15 66.65-11.15L66.65-11.15Q67.3-11.15 67.67-10.55 68.05-9.95 68.05-8.9L68.05-8.9Q68.05-6.95 67.1-5.8L67.1-5.8Q64.5-2.65 61.95-1.2 59.4 0.25 56.6 0.25L56.6 0.25Q52.35 0.25 49.95-2.27 47.55-4.8 47.55-9.05L47.55-9.05Q47.55-12 48.75-17.6L48.75-17.6 50.75-26.75Q50.85-27.2 51.1-28.35 51.35-29.5 51.5-30.53 51.65-31.55 51.65-32.55L51.65-32.55Q51.65-34.3 50.98-35.18 50.3-36.05 49.05-36.05L49.05-36.05Q46.7-36.05 44.13-33.02 41.55-30 39.23-23 36.9-16 35.45-4.8L35.45-4.8Q35.1-1.8 34.23-0.78 33.35 0.25 31.4 0.25L31.4 0.25Q29.7 0.25 28.93-0.55 28.15-1.35 28.15-3.55L28.15-3.55Q28.15-5.6 28.7-8.93 29.25-12.25 30.1-16.75L30.1-16.75Q32.4-28.85 32.4-32.35L32.4-32.35Q32.4-34.25 31.68-35.15 30.95-36.05 29.5-36.05L29.5-36.05Q27.05-36.05 24.45-33.27 21.85-30.5 19.38-23.43 16.9-16.35 15.25-4.3L15.25-4.3Q14.9-1.75 14.23-0.75 13.55 0.25 11.6 0.25L11.6 0.25ZM89.6-11.05Q90.25-11.05 90.62-10.43 91-9.8 91-8.85L91-8.85Q91-7.7 90.65-7.05 90.3-6.4 89.55-5.9L89.55-5.9 79.95 0.55Q78.05 10.9 74.97 16.82 71.9 22.75 67.15 22.75L67.15 22.75Q64.6 22.75 63 21.18 61.4 19.6 61.4 17.05L61.4 17.05Q61.4 14.7 62.47 12.25 63.55 9.8 66.47 6.63 69.4 3.45 74.75-0.65L74.75-0.65 74.9-1.8Q75.25-3.65 75.7-7.1L75.7-7.1Q74.7-3.5 72.9-1.63 71.1 0.25 69.1 0.25L69.1 0.25Q66.85 0.25 65.42-1.83 64-3.9 64-7L64-7Q64-10.75 64.5-13.88 65-17 66.15-20.5L66.15-20.5Q66.65-22 67.55-22.65 68.45-23.3 70.4-23.3L70.4-23.3Q71.5-23.3 71.92-22.95 72.35-22.6 72.35-21.9L72.35-21.9Q72.35-21.5 71.8-19.2L71.8-19.2Q71.3-17.35 71-15.85L71-15.85Q70.6-13.8 70.3-11.93 70-10.05 70-8.85L70-8.85Q70-6.95 71.05-6.95L71.05-6.95Q71.8-6.95 72.92-8.45 74.05-9.95 75.32-13 76.6-16.05 77.8-20.5L77.8-20.5Q78.2-22 79.02-22.65 79.85-23.3 81.5-23.3L81.5-23.3Q82.65-23.3 83.1-23 83.55-22.7 83.55-22L83.55-22Q83.55-20.75 82.25-13.4L82.25-13.4 80.95-5.35Q84.8-8.25 88.45-10.65L88.45-10.65Q89.1-11.05 89.6-11.05L89.6-11.05ZM67.7 17.9Q68.95 17.9 70.5 15 72.05 12.1 73.6 5.35L73.6 5.35Q69.75 8.6 68.02 11.28 66.3 13.95 66.3 15.95L66.3 15.95Q66.3 16.8 66.62 17.35 66.95 17.9 67.7 17.9L67.7 17.9ZM121.44 0.25Q115.49 0.25 111.09-1.93 106.69-4.1 104.34-8.1 101.99-12.1 101.99-17.4L101.99-17.4Q101.99-24.75 104.77-30.45 107.54-36.15 112.29-39.28 117.04-42.4 122.84-42.4L122.84-42.4Q128.24-42.4 131.04-39.63 133.84-36.85 133.84-32.3L133.84-32.3Q133.84-29.25 132.77-27.4 131.69-25.55 129.69-25.55L129.69-25.55Q128.29-25.55 127.49-26.2 126.69-26.85 126.69-28.1L126.69-28.1Q126.69-28.55 126.89-29.75L126.89-29.75Q127.19-31.25 127.19-32.15L127.19-32.15Q127.19-36.7 122.34-36.7L122.34-36.7Q119.04-36.7 116.04-34.55 113.04-32.4 111.19-28.23 109.34-24.05 109.34-18.3L109.34-18.3Q109.34-12.3 112.69-9.03 116.04-5.75 122.59-5.75L122.59-5.75Q125.84-5.75 129.17-6.58 132.49-7.4 136.54-9.1L136.54-9.1Q137.29-9.4 137.79-9.4L137.79-9.4Q138.59-9.4 138.99-8.8 139.39-8.2 139.39-7.25L139.39-7.25Q139.39-4.2 136.09-2.75L136.09-2.75Q132.54-1.2 128.72-0.48 124.89 0.25 121.44 0.25L121.44 0.25ZM160.49-15.35Q161.14-15.35 161.49-14.7 161.84-14.05 161.84-13.05L161.84-13.05Q161.84-10.65 160.39-10.2L160.39-10.2Q157.39-9.15 153.79-9L153.79-9Q152.84-4.8 150.04-2.27 147.24 0.25 143.69 0.25L143.69 0.25Q140.69 0.25 138.57-1.2 136.44-2.65 135.34-5.05 134.24-7.45 134.24-10.25L134.24-10.25Q134.24-14.05 135.69-17.03 137.14-20 139.69-21.68 142.24-23.35 145.34-23.35L145.34-23.35Q149.14-23.35 151.47-20.73 153.79-18.1 154.19-14.25L154.19-14.25Q156.54-14.4 159.79-15.25L159.79-15.25Q160.19-15.35 160.49-15.35L160.49-15.35ZM144.09-5.05Q145.69-5.05 146.87-6.35 148.04-7.65 148.44-10.1L148.44-10.1Q146.89-11.15 146.07-12.85 145.24-14.55 145.24-16.45L145.24-16.45Q145.24-17.25 145.39-18.05L145.39-18.05 145.14-18.05Q143.14-18.05 141.82-16.13 140.49-14.2 140.49-10.7L140.49-10.7Q140.49-7.95 141.57-6.5 142.64-5.05 144.09-5.05L144.09-5.05ZM161.09 0.25Q159.19 0.25 158.41-1.75 157.64-3.75 157.64-8.15L157.64-8.15Q157.64-14.65 159.49-20.5L159.49-20.5Q159.94-21.95 160.96-22.63 161.99-23.3 163.84-23.3L163.84-23.3Q164.84-23.3 165.24-23.05 165.64-22.8 165.64-22.1L165.64-22.1Q165.64-21.3 164.89-18.5L164.89-18.5Q164.39-16.5 164.09-15 163.79-13.5 163.59-11.3L163.59-11.3Q165.24-15.6 167.29-18.3 169.34-21 171.31-22.15 173.29-23.3 174.94-23.3L174.94-23.3Q178.19-23.3 178.19-20.05L178.19-20.05Q178.19-18.1 177.09-13L177.09-13Q176.14-8.65 176.14-7.25L176.14-7.25Q176.14-5.25 177.59-5.25L177.59-5.25Q178.59-5.25 179.96-6.48 181.34-7.7 183.64-10.45L183.64-10.45Q184.24-11.15 184.99-11.15L184.99-11.15Q185.64-11.15 186.01-10.55 186.39-9.95 186.39-8.9L186.39-8.9Q186.39-6.9 185.44-5.8L185.44-5.8Q183.29-3.15 180.81-1.45 178.34 0.25 175.19 0.25L175.19 0.25Q172.64 0.25 171.34-1.23 170.04-2.7 170.04-5.5L170.04-5.5Q170.04-6.9 170.74-10.5L170.74-10.5Q171.39-13.65 171.39-14.85L171.39-14.85Q171.39-15.65 170.84-15.65L170.84-15.65Q170.19-15.65 169.01-13.98 167.84-12.3 166.61-9.55 165.39-6.8 164.64-3.75L164.64-3.75Q164.09-1.4 163.36-0.58 162.64 0.25 161.09 0.25L161.09 0.25ZM191.64 1.35Q189.04 1.35 187.66 0.15 186.29-1.05 186.29-2.55L186.29-2.55Q186.29-3.85 187.24-4.8 188.19-5.75 190.04-5.75L190.04-5.75Q190.69-5.75 191.56-5.63 192.44-5.5 192.89-5.45L192.89-5.45Q192.84-6.75 192.31-7.9 191.79-9.05 190.99-10.13 190.19-11.2 189.49-12L189.49-12Q187.94-9.05 186.41-7.1 184.89-5.15 183.09-3.4L183.09-3.4Q182.19-2.5 181.19-2.5L181.19-2.5Q180.39-2.5 179.89-3.08 179.39-3.65 179.39-4.5L179.39-4.5Q179.39-5.5 180.09-6.35L180.09-6.35 180.74-7.15Q183.49-10.55 184.89-12.75L184.89-12.75Q185.74-14.2 186.89-16.63 188.04-19.05 189.14-21.65L189.14-21.65Q190.09-23.85 193.09-23.85L193.09-23.85Q194.49-23.85 195.04-23.6 195.59-23.35 195.59-22.8L195.59-22.8Q195.59-22.5 195.39-21.85 195.19-21.2 194.84-20.55L194.84-20.55Q193.94-18.75 193.94-17.5L193.94-17.5Q193.94-16.75 194.46-15.85 194.99-14.95 196.09-13.6L196.09-13.6Q197.69-11.5 198.51-10.03 199.34-8.55 199.34-6.8L199.34-6.8Q199.34-6.3 199.24-5.4L199.24-5.4Q201.69-6.35 204.99-10.45L204.99-10.45Q205.59-11.15 206.34-11.15L206.34-11.15Q206.99-11.15 207.36-10.55 207.74-9.95 207.74-8.9L207.74-8.9Q207.74-7 206.79-5.8L206.79-5.8Q204.29-2.7 202.01-1.58 199.74-0.45 196.39-0.35L196.39-0.35Q194.39 1.35 191.64 1.35L191.64 1.35ZM225.98-11.15Q226.63-11.15 227.01-10.55 227.38-9.95 227.38-8.9L227.38-8.9Q227.38-6.9 226.43-5.8L226.43-5.8Q224.28-3.15 221.73-1.45 219.18 0.25 215.88 0.25L215.88 0.25Q205.68 0.25 205.68-14.1L205.68-14.1Q205.68-16.3 205.83-18.55L205.83-18.55 203.88-18.55Q202.38-18.55 201.86-19.1 201.33-19.65 201.33-20.85L201.33-20.85Q201.33-23.65 203.58-23.65L203.58-23.65 206.43-23.65Q207.28-29.15 209.03-33.7 210.78-38.25 213.26-40.95 215.73-43.65 218.58-43.65L218.58-43.65Q220.68-43.65 221.88-41.8 223.08-39.95 223.08-37.15L223.08-37.15Q223.08-29.4 216.58-23.65L216.58-23.65 222.18-23.65Q222.98-23.65 223.33-23.3 223.68-22.95 223.68-22L223.68-22Q223.68-18.55 218.03-18.55L218.03-18.55 211.93-18.55Q211.83-16.05 211.83-14.65L211.83-14.65Q211.83-9.45 213.06-7.35 214.28-5.25 216.93-5.25L216.93-5.25Q219.08-5.25 220.73-6.55 222.38-7.85 224.63-10.45L224.63-10.45Q225.23-11.15 225.98-11.15L225.98-11.15ZM217.23-38.85Q216.48-38.85 215.56-36.98 214.63-35.1 213.81-31.78 212.98-28.45 212.43-24.4L212.43-24.4Q215.38-26.95 216.86-30.13 218.33-33.3 218.33-35.9L218.33-35.9Q218.33-38.85 217.23-38.85L217.23-38.85ZM226.88 0.25Q224.98 0.25 224.21-1.75 223.43-3.75 223.43-8.15L223.43-8.15Q223.43-14.65 225.28-20.5L225.28-20.5Q225.73-21.95 226.76-22.63 227.78-23.3 229.63-23.3L229.63-23.3Q230.63-23.3 231.03-23.05 231.43-22.8 231.43-22.1L231.43-22.1Q231.43-21.3 230.68-18.5L230.68-18.5Q230.18-16.5 229.88-15 229.58-13.5 229.38-11.3L229.38-11.3Q231.03-15.6 233.08-18.3 235.13-21 237.11-22.15 239.08-23.3 240.73-23.3L240.73-23.3Q243.98-23.3 243.98-20.05L243.98-20.05Q243.98-19.4 243.53-16.9L243.53-16.9Q243.13-14.9 243.13-14.4L243.13-14.4Q243.13-12.65 244.38-12.65L244.38-12.65Q245.78-12.65 247.98-14.85L247.98-14.85Q248.63-15.5 249.33-15.5L249.33-15.5Q249.98-15.5 250.36-14.93 250.73-14.35 250.73-13.4L250.73-13.4Q250.73-11.55 249.73-10.5L249.73-10.5Q248.33-9.05 246.46-8.03 244.58-7 242.48-7L242.48-7Q239.83-7 238.46-8.35 237.08-9.7 237.08-12L237.08-12Q237.08-12.75 237.23-13.5L237.23-13.5Q237.33-14.5 237.33-14.85L237.33-14.85Q237.33-15.65 236.78-15.65L236.78-15.65Q236.03-15.65 234.81-13.98 233.58-12.3 232.38-9.55 231.18-6.8 230.43-3.75L230.43-3.75Q229.88-1.4 229.16-0.58 228.43 0.25 226.88 0.25L226.88 0.25ZM251.18 0.25Q248.93 0.25 247.5-1.83 246.08-3.9 246.08-7L246.08-7Q246.08-10.75 246.58-13.88 247.08-17 248.23-20.5L248.23-20.5Q248.73-22 249.63-22.65 250.53-23.3 252.48-23.3L252.48-23.3Q253.58-23.3 254-22.95 254.43-22.6 254.43-21.9L254.43-21.9Q254.43-21.5 253.88-19.2L253.88-19.2Q253.38-17.35 253.08-15.85L253.08-15.85Q252.08-10.6 252.08-8.85L252.08-8.85Q252.08-7.8 252.33-7.38 252.58-6.95 253.13-6.95L253.13-6.95Q253.88-6.95 255-8.45 256.13-9.95 257.4-13 258.68-16.05 259.88-20.5L259.88-20.5Q260.28-22 261.1-22.65 261.93-23.3 263.58-23.3L263.58-23.3Q264.73-23.3 265.18-23.03 265.63-22.75 265.63-22L265.63-22Q265.63-20.75 264.38-15.15L264.38-15.15Q262.98-8.75 262.98-7.25L262.98-7.25Q262.98-6.3 263.38-5.78 263.78-5.25 264.43-5.25L264.43-5.25Q265.43-5.25 266.8-6.48 268.18-7.7 270.48-10.45L270.48-10.45Q271.08-11.15 271.83-11.15L271.83-11.15Q272.48-11.15 272.85-10.55 273.23-9.95 273.23-8.9L273.23-8.9Q273.23-6.9 272.28-5.8L272.28-5.8Q270.13-3.15 267.65-1.45 265.18 0.25 262.03 0.25L262.03 0.25Q259.63 0.25 258.5-1.6 257.38-3.45 257.38-6.8L257.38-6.8Q256.53-3.4 254.83-1.58 253.13 0.25 251.18 0.25L251.18 0.25ZM278.73 0.25Q273.83 0.25 271.1-2.53 268.38-5.3 268.38-9.85L268.38-9.85Q268.38-13.9 269.98-16.95 271.58-20 274.13-21.65 276.68-23.3 279.48-23.3L279.48-23.3Q282.23-23.3 283.75-21.68 285.28-20.05 285.28-17.5L285.28-17.5Q285.28-15.4 284.35-13.95 283.43-12.5 281.93-12.5L281.93-12.5Q280.98-12.5 280.4-12.95 279.83-13.4 279.83-14.2L279.83-14.2Q279.83-14.55 279.93-15 280.03-15.45 280.08-15.65L280.08-15.65Q280.33-16.4 280.33-17.05L280.33-17.05Q280.33-17.7 280-18.05 279.68-18.4 279.08-18.4L279.08-18.4Q277.93-18.4 276.93-17.38 275.93-16.35 275.33-14.6 274.73-12.85 274.73-10.75L274.73-10.75Q274.73-4.95 279.78-4.95L279.78-4.95Q281.83-4.95 284.2-6.33 286.58-7.7 288.88-10.45L288.88-10.45Q289.48-11.15 290.23-11.15L290.23-11.15Q290.88-11.15 291.25-10.55 291.63-9.95 291.63-8.9L291.63-8.9Q291.63-7 290.68-5.8L290.68-5.8Q288.33-2.9 285.05-1.33 281.78 0.25 278.73 0.25L278.73 0.25ZM310.12-11.15Q310.77-11.15 311.15-10.55 311.52-9.95 311.52-8.9L311.52-8.9Q311.52-6.9 310.57-5.8L310.57-5.8Q308.42-3.15 305.87-1.45 303.32 0.25 300.02 0.25L300.02 0.25Q289.82 0.25 289.82-14.1L289.82-14.1Q289.82-16.3 289.97-18.55L289.97-18.55 288.02-18.55Q286.52-18.55 286-19.1 285.47-19.65 285.47-20.85L285.47-20.85Q285.47-23.65 287.72-23.65L287.72-23.65 290.57-23.65Q291.42-29.15 293.17-33.7 294.92-38.25 297.4-40.95 299.87-43.65 302.72-43.65L302.72-43.65Q304.82-43.65 306.02-41.8 307.22-39.95 307.22-37.15L307.22-37.15Q307.22-29.4 300.72-23.65L300.72-23.65 306.32-23.65Q307.12-23.65 307.47-23.3 307.82-22.95 307.82-22L307.82-22Q307.82-18.55 302.17-18.55L302.17-18.55 296.07-18.55Q295.97-16.05 295.97-14.65L295.97-14.65Q295.97-9.45 297.2-7.35 298.42-5.25 301.07-5.25L301.07-5.25Q303.22-5.25 304.87-6.55 306.52-7.85 308.77-10.45L308.77-10.45Q309.37-11.15 310.12-11.15L310.12-11.15ZM301.37-38.85Q300.62-38.85 299.7-36.98 298.77-35.1 297.95-31.78 297.12-28.45 296.57-24.4L296.57-24.4Q299.52-26.95 301-30.13 302.47-33.3 302.47-35.9L302.47-35.9Q302.47-38.85 301.37-38.85L301.37-38.85ZM314.02-26.6Q311.92-26.6 310.87-27.58 309.82-28.55 309.82-30.3L309.82-30.3Q309.82-32.05 311.2-33.23 312.57-34.4 314.62-34.4L314.62-34.4Q316.47-34.4 317.62-33.5 318.77-32.6 318.77-30.95L318.77-30.95Q318.77-28.95 317.47-27.78 316.17-26.6 314.02-26.6L314.02-26.6ZM313.62 0.25Q310.37 0.25 308.9-2.05 307.42-4.35 307.42-8.15L307.42-8.15Q307.42-10.4 308-13.93 308.57-17.45 309.47-20.5L309.47-20.5Q309.92-22.1 310.67-22.7 311.42-23.3 313.07-23.3L313.07-23.3Q315.62-23.3 315.62-21.6L315.62-21.6Q315.62-20.35 314.67-15.8L314.67-15.8Q313.47-10.3 313.47-8.35L313.47-8.35Q313.47-6.85 313.87-6.05 314.27-5.25 315.22-5.25L315.22-5.25Q316.12-5.25 317.47-6.5 318.82-7.75 321.07-10.45L321.07-10.45Q321.67-11.15 322.42-11.15L322.42-11.15Q323.07-11.15 323.45-10.55 323.82-9.95 323.82-8.9L323.82-8.9Q323.82-6.9 322.87-5.8L322.87-5.8Q317.92 0.25 313.62 0.25L313.62 0.25ZM345.27-15.35Q345.92-15.35 346.27-14.7 346.62-14.05 346.62-13.05L346.62-13.05Q346.62-10.65 345.17-10.2L345.17-10.2Q342.17-9.15 338.57-9L338.57-9Q337.62-4.8 334.82-2.27 332.02 0.25 328.47 0.25L328.47 0.25Q325.47 0.25 323.34-1.2 321.22-2.65 320.12-5.05 319.02-7.45 319.02-10.25L319.02-10.25Q319.02-14.05 320.47-17.03 321.92-20 324.47-21.68 327.02-23.35 330.12-23.35L330.12-23.35Q333.92-23.35 336.24-20.73 338.57-18.1 338.97-14.25L338.97-14.25Q341.32-14.4 344.57-15.25L344.57-15.25Q344.97-15.35 345.27-15.35L345.27-15.35ZM328.87-5.05Q330.47-5.05 331.64-6.35 332.82-7.65 333.22-10.1L333.22-10.1Q331.67-11.15 330.84-12.85 330.02-14.55 330.02-16.45L330.02-16.45Q330.02-17.25 330.17-18.05L330.17-18.05 329.92-18.05Q327.92-18.05 326.59-16.13 325.27-14.2 325.27-10.7L325.27-10.7Q325.27-7.95 326.34-6.5 327.42-5.05 328.87-5.05L328.87-5.05ZM345.87 0.25Q343.97 0.25 343.19-1.75 342.42-3.75 342.42-8.15L342.42-8.15Q342.42-14.65 344.27-20.5L344.27-20.5Q344.72-21.95 345.74-22.63 346.77-23.3 348.62-23.3L348.62-23.3Q349.62-23.3 350.02-23.05 350.42-22.8 350.42-22.1L350.42-22.1Q350.42-21.3 349.67-18.5L349.67-18.5Q349.17-16.5 348.87-15 348.57-13.5 348.37-11.3L348.37-11.3Q350.02-15.6 352.07-18.3 354.12-21 356.09-22.15 358.07-23.3 359.72-23.3L359.72-23.3Q362.97-23.3 362.97-20.05L362.97-20.05Q362.97-18.1 361.87-13L361.87-13Q360.92-8.65 360.92-7.25L360.92-7.25Q360.92-5.25 362.37-5.25L362.37-5.25Q363.37-5.25 364.74-6.48 366.12-7.7 368.42-10.45L368.42-10.45Q369.02-11.15 369.77-11.15L369.77-11.15Q370.42-11.15 370.79-10.55 371.17-9.95 371.17-8.9L371.17-8.9Q371.17-6.9 370.22-5.8L370.22-5.8Q368.07-3.15 365.59-1.45 363.12 0.25 359.97 0.25L359.97 0.25Q357.42 0.25 356.12-1.23 354.82-2.7 354.82-5.5L354.82-5.5Q354.82-6.9 355.52-10.5L355.52-10.5Q356.17-13.65 356.17-14.85L356.17-14.85Q356.17-15.65 355.62-15.65L355.62-15.65Q354.97-15.65 353.79-13.98 352.62-12.3 351.39-9.55 350.17-6.8 349.42-3.75L349.42-3.75Q348.87-1.4 348.14-0.58 347.42 0.25 345.87 0.25L345.87 0.25ZM420.01-41.5Q421.56-41.2 422.34-40.45 423.11-39.7 423.11-38.7L423.11-38.7Q423.11-37.05 422.19-36.3 421.26-35.55 419.26-35.7L419.26-35.7Q414.76-36.05 412.24-36.18 409.71-36.3 405.61-36.35L405.61-36.35Q403.76-27.15 402.21-17.85L402.21-17.85Q401.66-14.45 401.06-9.98 400.46-5.5 400.26-2.75L400.26-2.75Q400.16-1.3 399.06-0.53 397.96 0.25 396.41 0.25L396.41 0.25Q394.76 0.25 393.86-0.55 392.96-1.35 392.96-2.65L392.96-2.65Q392.96-3.85 393.34-6.63 393.71-9.4 394.21-12.45L394.21-12.45Q394.76-15.5 395.06-17.75L395.06-17.75Q395.61-21.55 396.31-25.3 397.01-29.05 397.71-32.4L397.71-32.4Q397.86-33.15 398.06-34.13 398.26-35.1 398.51-36.3L398.51-36.3Q393.61-36.15 390.81-35.5 388.01-34.85 386.84-33.68 385.66-32.5 385.66-30.65L385.66-30.65Q385.66-28.95 386.66-27.4L386.66-27.4Q386.86-27.05 386.86-26.65L386.86-26.65Q386.86-25.7 385.74-24.88 384.61-24.05 383.41-24.05L383.41-24.05Q382.56-24.05 382.01-24.55L382.01-24.55Q381.01-25.4 380.36-26.98 379.71-28.55 379.71-30.55L379.71-30.55Q379.71-34.8 382.49-37.38 385.26-39.95 390.94-41.15 396.61-42.35 405.51-42.35L405.51-42.35Q411.01-42.35 414.29-42.15 417.56-41.95 420.01-41.5L420.01-41.5ZM433.01-11.15Q433.66-11.15 434.03-10.55 434.41-9.95 434.41-8.9L434.41-8.9Q434.41-6.9 433.46-5.8L433.46-5.8Q431.61-3.55 428.23-1.65 424.86 0.25 421.01 0.25L421.01 0.25Q415.76 0.25 412.86-2.6 409.96-5.45 409.96-10.4L409.96-10.4Q409.96-13.85 411.41-16.82 412.86-19.8 415.43-21.55 418.01-23.3 421.26-23.3L421.26-23.3Q424.16-23.3 425.91-21.58 427.66-19.85 427.66-16.9L427.66-16.9Q427.66-13.45 425.18-10.98 422.71-8.5 416.81-7.05L416.81-7.05Q418.06-4.75 421.56-4.75L421.56-4.75Q423.81-4.75 426.68-6.33 429.56-7.9 431.66-10.45L431.66-10.45Q432.26-11.15 433.01-11.15L433.01-11.15ZM420.41-18.4Q418.56-18.4 417.28-16.25 416.01-14.1 416.01-11.05L416.01-11.05 416.01-10.95Q418.96-11.65 420.66-13.05 422.36-14.45 422.36-16.3L422.36-16.3Q422.36-17.25 421.83-17.82 421.31-18.4 420.41-18.4L420.41-18.4ZM439.91 0.25Q435.01 0.25 432.28-2.53 429.56-5.3 429.56-9.85L429.56-9.85Q429.56-13.9 431.16-16.95 432.76-20 435.31-21.65 437.86-23.3 440.66-23.3L440.66-23.3Q443.41-23.3 444.93-21.68 446.46-20.05 446.46-17.5L446.46-17.5Q446.46-15.4 445.53-13.95 444.61-12.5 443.11-12.5L443.11-12.5Q442.16-12.5 441.58-12.95 441.01-13.4 441.01-14.2L441.01-14.2Q441.01-14.55 441.11-15 441.21-15.45 441.26-15.65L441.26-15.65Q441.51-16.4 441.51-17.05L441.51-17.05Q441.51-17.7 441.18-18.05 440.86-18.4 440.26-18.4L440.26-18.4Q439.11-18.4 438.11-17.38 437.11-16.35 436.51-14.6 435.91-12.85 435.91-10.75L435.91-10.75Q435.91-4.95 440.96-4.95L440.96-4.95Q443.01-4.95 445.38-6.33 447.76-7.7 450.06-10.45L450.06-10.45Q450.66-11.15 451.41-11.15L451.41-11.15Q452.06-11.15 452.43-10.55 452.81-9.95 452.81-8.9L452.81-8.9Q452.81-7 451.86-5.8L451.86-5.8Q449.51-2.9 446.23-1.33 442.96 0.25 439.91 0.25L439.91 0.25ZM476.5-11.15Q477.15-11.15 477.53-10.55 477.9-9.95 477.9-8.9L477.9-8.9Q477.9-6.9 476.95-5.8L476.95-5.8Q474.65-3.15 472.23-1.45 469.8 0.25 466.7 0.25L466.7 0.25Q464.15 0.25 462.85-1.23 461.55-2.7 461.55-5.5L461.55-5.5Q461.55-6.9 462.25-10.5L462.25-10.5Q462.9-13.65 462.9-14.85L462.9-14.85Q462.9-15.65 462.35-15.65L462.35-15.65Q461.7-15.65 460.5-13.98 459.3-12.3 458.1-9.55 456.9-6.8 456.15-3.75L456.15-3.75Q455.2 0.25 451.45 0.25L451.45 0.25Q449.95 0.25 449.48-0.83 449-1.9 449-4.7L449-4.7Q449-6.3 449.05-7.25L449.05-7.25 449.1-11.25Q449.1-18.95 450.68-27.3 452.25-35.65 455.33-41.33 458.4-47 462.7-47L462.7-47Q465-47 466.43-45.03 467.85-43.05 467.85-39.9L467.85-39.9Q467.85-34.85 464.9-29.43 461.95-24 455.3-16.75L455.3-16.75Q455.15-14.15 455.15-11.4L455.15-11.4Q456.8-15.65 458.83-18.32 460.85-21 462.83-22.15 464.8-23.3 466.45-23.3L466.45-23.3Q469.7-23.3 469.7-20.05L469.7-20.05Q469.7-18.1 468.6-13L468.6-13Q467.65-8.65 467.65-7.25L467.65-7.25Q467.65-5.25 469.1-5.25L469.1-5.25Q470.1-5.25 471.48-6.48 472.85-7.7 475.15-10.45L475.15-10.45Q475.75-11.15 476.5-11.15L476.5-11.15ZM461.65-42.05Q460.75-42.05 459.65-39.48 458.55-36.9 457.53-32.52 456.5-28.15 455.85-23L455.85-23Q458.95-26.65 460.98-30.95 463-35.25 463-38.75L463-38.75Q463-40.35 462.65-41.2 462.3-42.05 461.65-42.05L461.65-42.05Z" opacity="1" transform="matrix(1,0,0,1,0,0)" fill="#ffffff" class="undefined-text-0" data-fill-palette-color="primary" id="text-0"></path></svg></g></svg></g></svg></g></svg></g><g transform="matrix(1,0,0,1,149.87929640167363,0)"><svg viewBox="0 0 95.76140719665273 79.76140719665273" height="79.76140719665273" width="95.76140719665273"><g><svg xmlns="http://www.w3.org/2000/svg" xmlns:xlink="http://www.w3.org/1999/xlink" version="1.1" x="8" y="0" viewBox="3 3 58 58" style="enable-background:new 0 0 64 64;" xml:space="preserve" height="79.76140719665273" width="79.76140719665273" class="icon-icon-0" data-fill-palette-color="accent" id="icon-0"><g fill="#ffffff" data-fill-palette-color="accent"><rect x="7" y="23" width="18" height="2" fill="#ffffff" data-fill-palette-color="accent"></rect><rect x="7" y="31" width="18" height="2" fill="#ffffff" data-fill-palette-color="accent"></rect><rect x="9" y="27" width="14" height="2" fill="#ffffff" data-fill-palette-color="accent"></rect><rect x="9" y="19" width="14" height="2" fill="#ffffff" data-fill-palette-color="accent"></rect><polygon points="33,17.414 31,19.414 31,37 35,37 35,19.414  " fill="#ffffff" data-fill-palette-color="accent"></polygon><path d="M29 58c0 1.654 1.346 3 3 3h2c1.654 0 3-1.346 3-3V43h-8V58zM32 45h2v2h-2V45zM32 49h2v2h-2V49zM32 53h2v2h-2V53z" fill="#ffffff" data-fill-palette-color="accent"></path><path d="M52.12 30.709l0.651-0.281C55.34 29.318 57 26.795 57 24c0-2.333-1.14-4.455-3-5.744v5.979l-0.105 0.211C53.843 24.551 52.588 27 50 27s-3.843-2.449-3.895-2.553L46 24.236v-5.979c-1.86 1.289-3 3.411-3 5.744 0 2.795 1.66 5.318 4.229 6.428l0.651 0.281-1.87 26.19C46.003 56.993 46 57.083 46 57.172 46 59.282 47.718 61 49.828 61h0.344C52.282 61 54 59.282 54 57.172c0-0.089-0.003-0.179-0.01-0.267L52.12 30.709zM50.702 58.773c-0.391 0.391-1.024 0.391-1.414 0-0.391-0.391-0.391-1.024 0-1.414 0.391-0.391 1.024-0.391 1.414 0C51.092 57.75 51.092 58.383 50.702 58.773z" fill="#ffffff" data-fill-palette-color="accent"></path><rect x="7" y="15" width="18" height="2" fill="#ffffff" data-fill-palette-color="accent"></rect><rect x="27" y="39" width="12" height="2" fill="#ffffff" data-fill-palette-color="accent"></rect><path d="M3 42c0 1.654 1.346 3 3 3h21v-2h-2v-6h4V18.586l4-4 4 4V37h4v6h-2v2h5.855l0.932-13.048C42.856 30.4 41 27.352 41 24c0-3.682 2.208-6.956 5.624-8.34L48 15.103v8.625C48.252 24.113 48.946 25 50 25c1.052 0 1.746-0.884 2-1.273v-8.625l1.376 0.558C56.792 17.044 59 20.318 59 24c0 3.352-1.856 6.4-4.786 7.952L55.145 45H58c1.654 0 3-1.346 3-3V11H3V42zM5 29h2v-2H5v-6h2v-2H5v-6h22v6h-2v2h2v6h-2v2h2v6H5V29zM5 37h10v2H5V37zM5 41h10v2H5V41z" fill="#ffffff" data-fill-palette-color="accent"></path><path d="M58 3h-8c-0.939 0-1.836 0.449-2.4 1.2L45.5 7H6C4.698 7 3.598 7.839 3.184 9H61V6C61 4.346 59.654 3 58 3zM51 7h-2V5h2V7zM55 7h-2V5h2V7zM59 7h-2V5h2V7z" fill="#ffffff" data-fill-palette-color="accent"></path></g></svg></g></svg></g><g><rect width="149.87929640167363" height="5.204751096068285" y="73.55665610058445" x="245.64070359832635" fill="#ffffff" data-fill-palette-color="accent"></rect><rect width="149.87929640167363" height="5.204751096068285" y="73.55665610058445" x="0" fill="#ffffff" data-fill-palette-color="accent"></rect><rect width="149.87929640167363" height="5.204751096068285" y="63.147153908447876" x="245.64070359832635" fill="#ffffff" data-fill-palette-color="accent"></rect><rect width="149.87929640167363" height="5.204751096068285" y="63.147153908447876" x="0" fill="#ffffff" data-fill-palette-color="accent"></rect></g></svg></g><defs></defs></svg><rect width="395.52" height="151.10088705338913" fill="none" stroke="none" visibility="hidden"></rect></g></svg></g></svg>